<?xml version="1.0" encoding="UTF-8" standalone="no"?>
<!-- Created with Inkscape (http://www.inkscape.org/) -->

<svg
   width="1024"
   height="1024"
   viewBox="0 0 270.93333 270.93333"
   version="1.1"
   id="svg1"
   xml:space="preserve"
   inkscape:version="1.4 (e7c3feb100, 2024-10-09)"
   sodipodi:docname="logoLegal.svg"
   xmlns:inkscape="http://www.inkscape.org/namespaces/inkscape"
   xmlns:sodipodi="http://sodipodi.sourceforge.net/DTD/sodipodi-0.dtd"
   xmlns="http://www.w3.org/2000/svg"
   xmlns:svg="http://www.w3.org/2000/svg"><sodipodi:namedview
     id="namedview1"
     pagecolor="#505050"
     bordercolor="#eeeeee"
     borderopacity="1"
     inkscape:showpageshadow="0"
     inkscape:pageopacity="0"
     inkscape:pagecheckerboard="0"
     inkscape:deskcolor="#505050"
     inkscape:document-units="mm"
     inkscape:zoom="0.71446409"
     inkscape:cx="396.80091"
     inkscape:cy="561.25984"
     inkscape:window-width="1920"
     inkscape:window-height="1011"
     inkscape:window-x="0"
     inkscape:window-y="0"
     inkscape:window-maximized="1"
     inkscape:current-layer="layer1" /><defs
     id="defs1" /><g
     inkscape:label="Camada 1"
     inkscape:groupmode="layer"
     id="layer1"><path
       style="fill:#020cbc;fill-opacity:1;stroke-width:1.55623"
       d="m 121.15716,255.70457 c -12.15393,-2.17841 -19.47693,-11.88958 -20.49979,-27.18519 -1.127628,-16.86206 6.33474,-29.03751 20.21063,-32.97532 4.2245,-1.19886 12.80764,-1.29941 17.26369,-0.20225 8.9503,2.20375 15.63334,8.46662 17.16314,16.08409 0.71652,3.56778 0.79567,3.53393 -8.24656,3.52649 -4.21848,-0.003 -7.87524,-0.14239 -8.12617,-0.30882 -0.25091,-0.16637 -0.83109,-1.1564 -1.28926,-2.20005 -1.45847,-3.32217 -5.24872,-5.26858 -9.12703,-4.68698 -7.17024,1.07524 -11.23562,8.62281 -10.62864,19.73257 0.39682,7.26323 2.69785,12.37675 6.68286,14.85114 1.78579,1.10885 2.32979,1.23453 5.31568,1.22814 2.62077,-0.006 3.68653,-0.1983 5.02448,-0.90839 2.87125,-1.52386 4.67062,-4.20223 5.29133,-7.87617 l 0.28857,-1.70801 h -5.15369 c -6.6236,0 -6.44778,0.15874 -6.44778,-5.82102 0,-2.48981 0.19182,-4.88533 0.42625,-5.32338 0.40699,-0.76047 0.98883,-0.79643 12.88785,-0.79643 9.14337,0 12.59319,0.1315 12.95573,0.4941 0.3673,0.36732 0.49411,4.59012 0.49411,16.45563 0,15.35927 -0.03,15.9776 -0.79644,16.38776 -0.43804,0.23443 -3.22955,0.42623 -6.20337,0.42623 -2.9738,0 -5.76532,-0.1918 -6.20335,-0.42623 -0.65545,-0.35079 -0.79643,-0.87647 -0.79643,-2.96973 v -2.54349 l -1.95583,1.86796 c -2.47353,2.36239 -3.52822,3.00605 -6.64786,4.05697 -2.92833,0.98648 -8.7232,1.38659 -11.88212,0.82038 z M 0.49410167,254.40461 C 0.11925167,254.02976 1.6666666e-6,246.97798 1.6666666e-6,225.18466 c 0,-27.97901 0.020700003333,-28.73694 0.7964300033334,-29.1521 1.28518003,-0.68781 13.69432033,-0.55413 14.66854033,0.15801 0.77145,0.56393 0.80322,1.35191 0.91267,22.64641 l 0.11344,22.06214 h 12.10684 c 10.45722,0 12.195,0.0882 12.75389,0.64705 0.52596,0.52596 0.64704,1.71473 0.64704,6.35275 0,4.63801 -0.12108,5.8268 -0.64704,6.35276 -0.57034,0.57033 -3.00134,0.64703 -20.50529,0.64703 -14.8963003,0 -19.98171033,-0.12341 -20.35235033,-0.4941 z m 50.23385033,0 c -0.37487,-0.37485 -0.4941,-7.42663 -0.4941,-29.21995 0,-27.97901 0.0207,-28.73694 0.79643,-29.1521 1.24463,-0.66611 40.01179,-0.57954 40.92936,0.0913 0.62429,0.45651 0.69437,1.24667 0.59339,6.69097 l -0.11454,6.17335 -12.86728,0.10878 -12.86727,0.10878 v 4.52342 4.52342 h 11.49967 c 9.90523,0 11.58938,0.0896 12.1467,0.64703 0.523,0.52301 0.64705,1.69122 0.64705,6.09396 0,3.68747 -0.15961,5.60649 -0.49411,5.94099 -0.36103,0.36103 -3.63258,0.4941 -12.14671,0.4941 h -11.65259 v 4.93526 4.93524 l 13.07315,0.10878 13.07315,0.10878 0.11423,6.12051 c 0.0777,4.16291 -0.0372,6.30298 -0.35922,6.69098 -0.64861,0.78152 -41.09837,0.85529 -41.8773,0.0764 z m 113.748578,-0.51656 c -0.55587,-0.55586 -1.01068,-1.26344 -1.01068,-1.57242 0,-0.30896 4.07854,-12.77804 9.06343,-27.70908 7.44847,-22.31011 9.25446,-27.3162 10.13553,-28.09497 1.06213,-0.93881 1.16009,-0.94646 10.53189,-0.82351 9.258,0.12155 9.47586,0.14396 10.21376,1.05609 0.88584,1.09494 18.5243,53.7472 18.5243,55.29655 0,0.57948 -0.26261,1.41327 -0.58359,1.85286 -0.52844,0.72374 -1.21211,0.81172 -7.2341,0.93094 -5.38249,0.1066 -6.83029,0.014 -7.59332,-0.48609 -0.70841,-0.46416 -1.23162,-1.67408 -2.10451,-4.86681 -0.63894,-2.337 -1.339,-4.48393 -1.55567,-4.77096 -0.30308,-0.40149 -2.67862,-0.49648 -10.29663,-0.41176 l -9.90266,0.11018 -0.35742,1.44113 c -1.39184,5.61176 -2.38531,8.10944 -3.4116,8.57706 -0.65652,0.29912 -3.39587,0.4815 -7.23244,0.4815 -6.00783,0 -6.20309,-0.0274 -7.18629,-1.01066 z m 33.97539,-23.06129 c 0.39998,-0.48195 0.12543,-2.02231 -1.3763,-7.72037 -1.0318,-3.91507 -2.37016,-9.11657 -2.97416,-11.55889 -0.60399,-2.44232 -1.1682,-4.37055 -1.25379,-4.28496 -0.0856,0.0856 -0.80837,2.81399 -1.60617,6.06311 -0.79781,3.24911 -2.09296,8.18739 -2.87814,10.97393 -1.55586,5.5217 -1.69175,6.54226 -0.9129,6.85654 0.28307,0.11423 2.76179,0.22231 5.50824,0.24019 3.90868,0.0255 5.10212,-0.0984 5.49322,-0.56955 z m 31.12968,23.42492 c -0.5757,-0.57568 -0.64705,-3.7735 -0.64705,-28.99917 0,-25.22565 0.0714,-28.42347 0.64705,-28.99915 0.5359,-0.53592 1.81346,-0.64705 7.43861,-0.64705 3.8942,0 7.13135,0.18185 7.58801,0.42625 0.77231,0.41332 0.79645,1.09939 0.79645,22.6464 v 22.22016 h 12.27023 c 8.99452,0 12.40215,0.13197 12.76433,0.49411 0.33918,0.33918 0.4941,2.37902 0.4941,6.50569 0,4.12668 -0.15484,6.16652 -0.4941,6.50569 -0.37063,0.37065 -5.45605,0.4941 -20.35234,0.4941 -17.50396,0 -19.93496,-0.0767 -20.50529,-0.64703 z M 74.527272,176.45682 c -5.11285,-1.24627 -9.62785,-3.98662 -13.35886,-8.10807 -5.16811,-5.70889 -8.41375,-16.1949 -5.37378,-17.36145 0.37558,-0.14411 2.76981,-0.26204 5.32052,-0.26204 5.34209,0 5.43931,0.0546 6.5934,3.70578 0.91775,2.90349 1.91117,4.50346 3.92688,6.32455 1.87618,1.695 4.13572,2.91767 6.18585,3.34722 2.69765,0.56521 2.88228,0.98749 2.88228,6.59246 0,6.68466 -0.49498,7.1464 -6.17629,5.76155 z m 116.423088,-0.0882 c -0.60205,-0.66604 -0.72057,-1.61094 -0.72057,-5.74489 0,-5.5259 0.19053,-5.95694 2.88227,-6.52092 2.05014,-0.42955 4.30968,-1.65222 6.18586,-3.34722 2.01571,-1.82109 3.00913,-3.42106 3.92688,-6.32456 1.15407,-3.65113 1.25129,-3.70577 6.5934,-3.70577 2.5507,0 4.94494,0.11796 5.3205,0.26204 3.09099,1.18611 -0.23557,11.74296 -5.51625,17.5059 -4.20641,4.59055 -10.11499,7.75303 -15.71238,8.40983 -1.89769,0.22268 -2.34902,0.14115 -2.95971,-0.53441 z M 77.859142,156.01122 c -2.16598,-1.48568 -3.03424,-2.93759 -3.23993,-5.41791 -0.13104,-1.58082 0.0247,-2.66584 0.53827,-3.74803 0.78208,-1.64813 0.86118,-1.71459 5.75195,-4.83323 1.8117,-1.15524 4.89124,-3.69741 6.84339,-5.64923 18.597658,-18.59455 20.802818,-52.732768 4.85251,-75.122148 -3.26424,-4.58198 -8.10827,-9.15839 -12.59812,-11.90206 -4.52748,-2.76666 -5.27407,-3.81261 -5.27407,-7.38881 0,-3.080365 0.65223,-4.3399 3.126,-6.036676 1.17717,-0.807421 1.80419,-0.937849 3.89131,-0.809432 3.31666,0.204069 4.45649,1.084662 7.18392,5.550031 3.97893,6.514337 11.144088,12.881317 18.880338,16.777107 11.43529,5.75855 25.70871,7.73135 38.97516,5.38697 4.37732,-0.77354 12.21519,-3.31775 15.90719,-5.16353 7.39932,-3.69924 14.6376,-9.93488 18.40895,-15.85897 2.98445,-4.688007 3.74017,-5.566432 5.3774,-6.250516 2.02317,-0.845327 5.3127,-0.517011 7.02318,0.700958 1.56652,1.115461 2.87749,3.723275 2.89045,5.749748 0.0125,1.97208 -1.37359,4.59954 -2.97005,5.62951 -0.73938,0.47702 -2.6523,1.71844 -4.25094,2.75871 -5.81013,3.7808 -12.72163,12.13503 -16.01109,19.35329 -1.79306,3.93462 -3.68231,9.86282 -4.6226,14.50515 -1.13965,5.62651 -1.03862,18.664408 0.18844,24.321318 2.49003,11.47929 6.81702,19.96377 13.96039,27.37389 1.96803,2.04151 4.88621,4.56298 6.48486,5.60326 1.59864,1.04028 3.51156,2.2817 4.25094,2.75871 1.59646,1.02998 2.98266,3.65744 2.97005,5.62951 -0.0125,2.02648 -1.32393,4.63429 -2.89045,5.74975 -1.71048,1.21797 -5.00001,1.54628 -7.02318,0.70095 -1.63502,-0.68315 -2.39507,-1.56546 -5.35544,-6.21687 -5.22108,-8.20349 -14.60649,-15.05411 -25.69129,-18.75265 -18.28816,-6.102 -38.34786,-3.61204 -53.73375,6.6698 -4.429398,2.96003 -10.093938,8.81188 -12.768558,13.19079 -2.72743,4.46537 -3.86726,5.34596 -7.18392,5.55003 -2.08712,0.12839 -2.71414,-0.002 -3.89131,-0.80942 z M 54.964412,40.220423 c -0.58112,-0.886913 -0.57919,-1.282305 0.0206,-4.220466 2.11588,-10.365291 10.27058,-18.500029 20.67173,-20.621126 2.73151,-0.557034 3.10203,-0.552031 4.02755,0.05439 0.99113,0.649423 1.01929,0.804747 1.01929,5.626471 0,2.727235 -0.18028,5.295443 -0.40061,5.707128 -0.22033,0.411686 -1.09182,0.878195 -1.93667,1.03669 -5.02779,0.943221 -9.1992,4.88159 -10.69921,10.101485 -0.35793,1.245552 -0.83638,2.49625 -1.06323,2.779332 -0.29145,0.363667 -1.96552,0.51469 -5.70535,0.51469 -5.11811,0 -5.31404,-0.03231 -5.93408,-0.978592 z m 149.365098,0.463902 c -0.22685,-0.283082 -0.70532,-1.53378 -1.06323,-2.779333 -1.50001,-5.219894 -5.67142,-9.158264 -10.69922,-10.101484 -0.84484,-0.158495 -1.71635,-0.625005 -1.93668,-1.03669 -0.22032,-0.411685 -0.40059,-2.979893 -0.40059,-5.707129 0,-4.821723 0.0282,-4.977047 1.01929,-5.62647 0.9255,-0.606419 1.29604,-0.611422 4.02755,-0.05439 10.40115,2.121097 18.55585,10.255835 20.67173,20.621126 0.59977,2.938161 0.60169,3.333553 0.0205,4.220466 -0.62002,0.94628 -0.81594,0.978592 -5.93406,0.978592 -3.73983,0 -5.41391,-0.151017 -5.70535,-0.514691 z"
       id="path1" /></g></svg>
