<?xml version="1.0" encoding="UTF-8" standalone="no"?>
<!-- Created with Inkscape (http://www.inkscape.org/) -->

<svg
   width="1024"
   height="1024"
   viewBox="0 0 270 270"
   version="1.1"
   id="svg1"
   sodipodi:docname="logo.svg"
   inkscape:version="1.4 (e7c3feb100, 2024-10-09)"
   xmlns:inkscape="http://www.inkscape.org/namespaces/inkscape"
   xmlns:sodipodi="http://sodipodi.sourceforge.net/DTD/sodipodi-0.dtd"
   xmlns="http://www.w3.org/2000/svg"
   xmlns:svg="http://www.w3.org/2000/svg">
  <defs
     id="defs1" />
  <sodipodi:namedview
     id="namedview1"
     pagecolor="#505050"
     bordercolor="#eeeeee"
     borderopacity="1"
     inkscape:showpageshadow="0"
     inkscape:pageopacity="0"
     inkscape:pagecheckerboard="0"
     inkscape:deskcolor="#505050"
     inkscape:zoom="0.39160156"
     inkscape:cx="423.90025"
     inkscape:cy="480.0798"
     inkscape:window-width="1920"
     inkscape:window-height="1011"
     inkscape:window-x="0"
     inkscape:window-y="0"
     inkscape:window-maximized="1"
     inkscape:current-layer="svg1" />
  <path
     id="rect1"
     fill="currentColor"
     d="M 67.500002,8.3333329e-7 C 30.105004,8.3333329e-7 8.3333329e-7,30.105004 8.3333329e-7,67.500002 V 202.5 C 8.3333329e-7,239.895 30.105004,270 67.500002,270 H 202.5 c 37.395,0 67.5,-30.105 67.5,-67.5 V 67.500002 C 270,30.105004 239.895,8.3333329e-7 202.5,8.3333329e-7 Z M 80.963233,71.205313 c 7.458566,0 13.462715,6.005172 13.462715,13.463745 V 185.33094 c 0,7.45855 -6.004149,13.46375 -13.462715,13.46375 -7.458562,0 -13.463231,-6.0052 -13.463231,-13.46375 V 84.669058 c 0,-7.458573 6.004669,-13.463745 13.463231,-13.463745 z m 108.073537,0 c 7.45857,0 13.46323,6.005172 13.46323,13.463745 V 185.33094 c 0,7.45855 -6.00466,13.46375 -13.46323,13.46375 -7.45856,0 -13.46271,-6.0052 -13.46271,-13.46375 V 84.669058 c 0,-7.458573 6.00415,-13.463745 13.46271,-13.463745 z m -85.97402,13.758316 c 8.9918,-0.183545 26.08267,6.448153 31.9285,6.467686 7.48264,0.02502 33.46116,-10.659931 37.18082,-4.167251 3.71964,6.492676 -18.63726,23.498756 -22.40027,29.966406 -3.76299,6.46766 -7.49876,34.30803 -14.9814,34.28301 -7.48265,-0.025 -11.03205,-27.88972 -14.75172,-34.3824 -3.71964,-6.49267 -25.962409,-23.648101 -22.199417,-30.115754 0.823155,-1.414799 2.705787,-2.000374 5.223487,-2.051697 z"
     style="stroke-width:0.996555" />
</svg>
