<?xml version="1.0" encoding="UTF-8" standalone="no"?>
<!-- Created with Inkscape (http://www.inkscape.org/) -->

<svg
   width="1024"
   height="1024"
   viewBox="0 0 270.93333 270.93333"
   version="1.1"
   id="svg1"
   inkscape:export-filename="logo.png"
   inkscape:export-xdpi="96"
   inkscape:export-ydpi="96"
   inkscape:version="1.4 (e7c3feb100, 2024-10-09)"
   sodipodi:docname="logoLight.svg"
   xmlns:inkscape="http://www.inkscape.org/namespaces/inkscape"
   xmlns:sodipodi="http://sodipodi.sourceforge.net/DTD/sodipodi-0.dtd"
   xmlns:xlink="http://www.w3.org/1999/xlink"
   xmlns="http://www.w3.org/2000/svg"
   xmlns:svg="http://www.w3.org/2000/svg">
  <sodipodi:namedview
     id="namedview1"
     pagecolor="#505050"
     bordercolor="#eeeeee"
     borderopacity="1"
     inkscape:showpageshadow="0"
     inkscape:pageopacity="0"
     inkscape:pagecheckerboard="0"
     inkscape:deskcolor="#505050"
     inkscape:document-units="mm"
     inkscape:zoom="0.71446409"
     inkscape:cx="438.0906"
     inkscape:cy="527.66823"
     inkscape:window-width="1233"
     inkscape:window-height="761"
     inkscape:window-x="26"
     inkscape:window-y="23"
     inkscape:window-maximized="0"
     inkscape:current-layer="layer1" />
  <defs
     id="defs1">
    <linearGradient
       id="linearGradient9"
       inkscape:collect="always">
      <stop
         style="stop-color:#6366f1;stop-opacity:1;"
         offset="0"
         id="stop10" />
      <stop
         style="stop-color:#eab308;stop-opacity:1;"
         offset="1"
         id="stop11" />
    </linearGradient>
    <linearGradient
       id="linearGradient2"
       inkscape:collect="always">
      <stop
         style="stop-color:#eab308;stop-opacity:1;"
         offset="0"
         id="stop2" />
      <stop
         style="stop-color:#6366f1;stop-opacity:1;"
         offset="1"
         id="stop3" />
    </linearGradient>
    <radialGradient
       inkscape:collect="always"
       xlink:href="#linearGradient2"
       id="radialGradient3"
       cx="135.83717"
       cy="109.44283"
       fx="135.83717"
       fy="109.44283"
       r="37.717702"
       gradientTransform="matrix(1.2796742,-0.00152647,0.00153652,1.2881031,-38.158314,-30.267994)"
       gradientUnits="userSpaceOnUse" />
    <linearGradient
       inkscape:collect="always"
       xlink:href="#linearGradient9"
       id="linearGradient11"
       x1="135.46666"
       y1="67.733337"
       x2="135.46666"
       y2="203.20001"
       gradientUnits="userSpaceOnUse" />
  </defs>
  <g
     inkscape:label="Camada 1"
     inkscape:groupmode="layer"
     id="layer1">
    <path
       id="rect1"
       style="fill:#000000;stroke-width:47.6872"
       d="M 67.733335,1.6666666e-6 C 30.209071,1.6666666e-6 1.6666666e-6,30.209071 1.6666666e-6,67.733335 V 203.2 C 1.6666666e-6,240.72426 30.209071,270.93333 67.733335,270.93333 H 203.2 c 37.52426,0 67.73333,-30.20907 67.73333,-67.73333 V 67.733335 C 270.93333,30.209071 240.72426,1.6666666e-6 203.2,1.6666666e-6 Z"
       sodipodi:nodetypes="sssssssss" />
    <path
       id="rect2-0-6"
       style="fill:url(#linearGradient11);stroke-width:11.0682;fill-opacity:1"
       d="m 81.242883,71.451502 c -7.48435,0 -13.50955,6.025777 -13.50955,13.510133 V 185.97171 c 0,7.48433 6.0252,13.51012 13.50955,13.51012 7.48435,0 13.50954,-6.02579 13.50954,-13.51012 V 84.961635 c 0,-7.484356 -6.02519,-13.510133 -13.50954,-13.510133 z m 108.447577,0 c -7.48435,0 -13.50955,6.025777 -13.50955,13.510133 V 185.97171 c 0,7.48433 6.0252,13.51012 13.50955,13.51012 7.48435,0 13.50954,-6.02579 13.50954,-13.51012 V 84.961635 c 0,-7.484356 -6.02519,-13.510133 -13.50954,-13.510133 z"
       sodipodi:nodetypes="ssssssssssssss" />
    <path
       id="path2"
       style="display:inline;fill:url(#radialGradient3);stroke-width:11.0682"
       d="m 103.41906,85.257455 c -2.5264,0.0515 -4.415397,0.63893 -5.241397,2.05862 -3.776,6.49001 18.543447,23.704735 22.275947,30.219855 3.73252,6.51512 7.29398,34.47613 14.8025,34.50124 7.50851,0.0251 11.25735,-27.91146 15.03335,-34.40148 3.77601,-6.49001 26.21032,-23.555065 22.47782,-30.070185 -3.73252,-6.515124 -29.8008,4.20674 -37.30931,4.18163 -5.86603,-0.0196 -23.01602,-6.67386 -32.03891,-6.48968 z"
       sodipodi:nodetypes="cssssssc" />
  </g>
</svg>
